<svg xmlns="http://www.w3.org/2000/svg" xmlns:xlink="http://www.w3.org/1999/xlink" width="500" zoomAndPan="magnify" viewBox="0 0 375 374.999991" height="500" preserveAspectRatio="xMidYMid meet" version="1.0"><defs><clipPath id="fe6e3673d8"><path d="M 216 49.898438 L 239 49.898438 L 239 72 L 216 72 Z M 216 49.898438 " clip-rule="nonzero"/></clipPath><clipPath id="e8cf5c2a0a"><path d="M 301 127 L 322.714844 127 L 322.714844 149 L 301 149 Z M 301 127 " clip-rule="nonzero"/></clipPath><clipPath id="6ba6ad285a"><path d="M 164 303 L 186 303 L 186 325.148438 L 164 325.148438 Z M 164 303 " clip-rule="nonzero"/></clipPath><clipPath id="2635805294"><path d="M 51.964844 159 L 74 159 L 74 181 L 51.964844 181 Z M 51.964844 159 " clip-rule="nonzero"/></clipPath></defs><path fill="#d31920" d="M 190.808594 260.390625 C 262.636719 226.558594 257.554688 158.789062 255.335938 143.199219 C 221.472656 140.808594 198.984375 119.503906 190.808594 110.363281 C 182.636719 119.507812 160.148438 140.808594 126.285156 143.199219 C 124.070312 158.789062 118.980469 226.558594 190.808594 260.390625 Z M 263.179688 138.257812 C 263.230469 138.515625 282.191406 228.027344 192.871094 268.90625 C 191.726562 269.535156 190.3125 269.632812 189.035156 269.050781 L 189.035156 269.042969 C 102.644531 229.710938 117.148438 144.988281 118.363281 138.648438 C 118.582031 136.539062 120.332031 134.867188 122.503906 134.800781 L 122.515625 134.816406 C 162.09375 133.613281 185.472656 103.601562 187.257812 101.234375 C 187.519531 100.847656 187.847656 100.5 188.242188 100.203125 C 190.140625 98.785156 192.832031 99.175781 194.25 101.078125 L 194.25 101.082031 C 194.316406 101.171875 217.839844 133.398438 258.792969 134.800781 C 260.875 134.703125 262.773438 136.140625 263.199219 138.25 Z M 263.179688 138.257812 " fill-opacity="1" fill-rule="nonzero"/><path fill="#d31920" d="M 231.894531 188.679688 C 189.140625 237.394531 153.070312 192.925781 149.789062 188.65625 C 148.425781 187.160156 148.269531 184.863281 149.527344 183.183594 L 149.542969 183.191406 C 149.652344 183.046875 187.105469 131.808594 231.894531 182.84375 C 233.453125 184.515625 233.390625 187.078125 231.894531 188.679688 Z M 222.953125 185.761719 C 192.035156 153.355469 165.941406 177.40625 158.511719 185.761719 C 165.945312 194.117188 192.035156 218.167969 222.953125 185.761719 Z M 222.953125 185.761719 " fill-opacity="1" fill-rule="nonzero"/><path fill="#d31920" d="M 190.863281 173.425781 C 194.261719 173.425781 197.34375 174.808594 199.570312 177.039062 C 201.800781 179.269531 203.179688 182.355469 203.179688 185.761719 C 203.179688 189.164062 201.800781 192.25 199.570312 194.480469 C 197.34375 196.714844 194.261719 198.09375 190.863281 198.09375 C 187.464844 198.09375 184.382812 196.714844 182.15625 194.480469 C 179.925781 192.25 178.546875 189.164062 178.546875 185.761719 C 178.546875 182.355469 179.925781 179.269531 182.15625 177.039062 C 184.382812 174.808594 187.464844 173.425781 190.863281 173.425781 Z M 193.5 183.121094 C 192.824219 182.445312 191.894531 182.027344 190.863281 182.027344 C 189.832031 182.027344 188.902344 182.445312 188.226562 183.121094 C 187.554688 183.796875 187.136719 184.730469 187.136719 185.761719 C 187.136719 186.792969 187.554688 187.726562 188.226562 188.402344 C 188.902344 189.074219 189.832031 189.496094 190.863281 189.496094 C 191.894531 189.496094 192.824219 189.074219 193.5 188.402344 C 194.171875 187.726562 194.589844 186.792969 194.589844 185.761719 C 194.589844 184.730469 194.171875 183.796875 193.5 183.121094 Z M 193.5 183.121094 " fill-opacity="1" fill-rule="nonzero"/><path fill="#d31920" d="M 231.835938 66.9375 C 231.835938 64.5625 229.914062 62.636719 227.542969 62.636719 C 225.167969 62.636719 223.246094 64.5625 223.246094 66.9375 L 223.246094 132.066406 C 223.246094 134.441406 225.167969 136.367188 227.542969 136.367188 C 229.914062 136.367188 231.835938 134.441406 231.835938 132.066406 Z M 231.835938 66.9375 " fill-opacity="1" fill-rule="nonzero"/><path fill="#d31920" d="M 206.570312 91.214844 C 206.570312 88.839844 204.648438 86.914062 202.277344 86.914062 C 199.902344 86.914062 197.980469 88.839844 197.980469 91.214844 L 197.980469 115.734375 C 197.980469 118.109375 199.902344 120.035156 202.277344 120.035156 C 204.648438 120.035156 206.570312 118.109375 206.570312 115.734375 Z M 206.570312 91.214844 " fill-opacity="1" fill-rule="nonzero"/><path fill="#d31920" d="M 152.347656 84.75 C 152.433594 82.382812 150.585938 80.398438 148.222656 80.316406 C 145.859375 80.230469 143.875 82.082031 143.792969 84.449219 L 143.726562 86.195312 C 143.582031 89.996094 143.433594 93.816406 143.550781 97.113281 C 143.632812 99.515625 144.566406 102.351562 147.855469 104.292969 C 149.710938 105.386719 152.347656 106.132812 156.074219 106.132812 L 169.339844 106.132812 C 170.011719 106.207031 172.121094 106.574219 171.960938 108.222656 L 171.949219 108.222656 C 171.933594 108.371094 171.925781 108.523438 171.925781 108.671875 L 171.925781 118.332031 C 171.925781 120.707031 173.847656 122.632812 176.21875 122.632812 C 178.589844 122.632812 180.515625 120.707031 180.515625 118.332031 L 180.515625 108.726562 C 181.265625 99.253906 172.109375 97.792969 170.050781 97.582031 C 169.835938 97.550781 169.617188 97.53125 169.390625 97.53125 L 156.074219 97.53125 C 154.039062 97.53125 152.851562 97.277344 152.214844 96.898438 C 152.128906 96.847656 152.105469 96.824219 152.105469 96.8125 C 152 93.828125 152.140625 90.15625 152.28125 86.5 Z M 152.347656 84.75 " fill-opacity="1" fill-rule="nonzero"/><path fill="#d31920" d="M 89.257812 173.863281 L 89.25 174.046875 L 89.25 190.117188 C 89.25 201.199219 99.152344 200.914062 99.179688 200.914062 L 126.875 200.914062 C 129.246094 200.914062 131.167969 198.988281 131.167969 196.613281 C 131.167969 194.238281 129.246094 192.3125 126.875 192.3125 L 99.179688 192.3125 C 99.175781 192.3125 97.839844 192.371094 97.839844 190.117188 L 97.839844 174.046875 C 97.839844 173.921875 97.835938 173.800781 97.824219 173.675781 C 97.746094 171.703125 96.757812 165.289062 87.230469 165.488281 L 68.964844 165.472656 C 66.59375 165.472656 64.667969 167.398438 64.667969 169.773438 C 64.667969 172.148438 66.59375 174.074219 68.964844 174.074219 L 87.339844 174.054688 C 88.902344 174.015625 89.199219 173.90625 89.257812 173.863281 Z M 89.257812 173.863281 " fill-opacity="1" fill-rule="nonzero"/><path fill="#d31920" d="M 133.664062 217.332031 C 136.035156 217.332031 137.957031 215.40625 137.957031 213.03125 C 137.957031 210.65625 136.035156 208.730469 133.664062 208.730469 L 79.371094 208.730469 C 77 208.730469 75.074219 210.65625 75.074219 213.03125 C 75.074219 215.40625 77 217.332031 79.371094 217.332031 Z M 133.664062 217.332031 " fill-opacity="1" fill-rule="nonzero"/><path fill="#d31920" d="M 170.644531 308.109375 C 170.644531 310.484375 172.566406 312.410156 174.9375 312.410156 C 177.308594 312.410156 179.234375 310.484375 179.234375 308.109375 L 179.234375 295.230469 C 179.234375 294.1875 179.160156 293.050781 179.09375 291.992188 L 179.101562 291.992188 C 179.097656 291.898438 179.089844 291.8125 179.078125 291.722656 C 179.042969 291.152344 179.011719 290.597656 179.011719 289.96875 C 179.011719 289.257812 179.519531 288.820312 182.792969 288.820312 L 196.109375 288.820312 C 196.332031 288.820312 196.550781 288.800781 196.765625 288.769531 C 198.824219 288.5625 207.980469 287.097656 207.230469 277.625 L 207.230469 258.945312 C 207.230469 256.570312 205.308594 254.644531 202.933594 254.644531 C 200.5625 254.644531 198.640625 256.570312 198.640625 258.945312 L 198.640625 277.679688 C 198.640625 277.828125 198.648438 277.980469 198.664062 278.132812 L 198.675781 278.128906 C 198.839844 279.78125 196.726562 280.144531 196.058594 280.21875 L 182.792969 280.21875 C 172.085938 280.21875 170.425781 283.9375 170.425781 289.96875 C 170.425781 290.589844 170.472656 291.386719 170.523438 292.246094 C 170.523438 292.339844 170.527344 292.433594 170.53125 292.53125 L 170.539062 292.53125 C 170.589844 293.324219 170.644531 294.179688 170.644531 295.230469 Z M 170.644531 308.109375 " fill-opacity="1" fill-rule="nonzero"/><path fill="#d31920" d="M 222.417969 249.363281 C 222.417969 246.988281 220.496094 245.0625 218.125 245.0625 C 215.75 245.0625 213.828125 246.988281 213.828125 249.363281 L 213.828125 300.890625 C 213.828125 303.265625 215.75 305.191406 218.125 305.191406 C 220.496094 305.191406 222.417969 303.265625 222.417969 300.890625 Z M 222.417969 249.363281 " fill-opacity="1" fill-rule="nonzero"/><path fill="#d31920" d="M 285.332031 191.472656 C 287.703125 191.472656 289.625 189.546875 289.625 187.171875 C 289.625 184.796875 287.703125 182.875 285.332031 182.875 L 257.328125 182.875 C 254.957031 182.875 253.035156 184.796875 253.035156 187.171875 C 253.035156 189.546875 254.957031 191.472656 257.328125 191.472656 Z M 285.332031 191.472656 " fill-opacity="1" fill-rule="nonzero"/><path fill="#d31920" d="M 305.714844 142.152344 C 308.085938 142.152344 310.007812 140.226562 310.007812 137.851562 C 310.007812 135.476562 308.085938 133.550781 305.714844 133.550781 L 290.691406 133.550781 C 290.660156 133.550781 280.761719 133.265625 280.761719 144.347656 L 280.761719 160.414062 L 280.765625 160.601562 C 280.710938 160.558594 280.417969 160.449219 278.851562 160.40625 L 278.851562 160.390625 L 260.472656 160.390625 C 258.101562 160.390625 256.179688 162.316406 256.179688 164.691406 C 256.179688 167.066406 258.101562 168.992188 260.472656 168.992188 L 278.738281 168.992188 L 278.738281 168.976562 C 288.269531 169.175781 289.257812 162.761719 289.335938 160.785156 C 289.34375 160.664062 289.351562 160.539062 289.351562 160.414062 L 289.351562 144.347656 C 289.351562 142.09375 290.6875 142.152344 290.691406 142.152344 Z M 305.714844 142.152344 " fill-opacity="1" fill-rule="nonzero"/><path fill="#d31920" d="M 250.675781 203.046875 C 248.304688 203.046875 246.382812 204.972656 246.382812 207.347656 C 246.382812 209.722656 248.304688 211.648438 250.675781 211.648438 L 281.488281 211.648438 C 282.03125 211.648438 282.546875 211.546875 283.023438 211.363281 C 283.160156 211.417969 283.578125 211.992188 283.035156 217.15625 L 283.023438 217.152344 C 283.007812 217.304688 283 217.457031 283 217.605469 L 283 230.9375 C 283 233.3125 284.921875 235.238281 287.296875 235.238281 C 289.667969 235.238281 291.589844 233.3125 291.589844 230.9375 L 291.589844 217.6875 C 293.171875 201.390625 284.019531 202.304688 280.964844 203.046875 Z M 250.675781 203.046875 " fill-opacity="1" fill-rule="nonzero"/><path fill="#d31920" d="M 148.070312 67.582031 C 153.941406 67.582031 158.714844 72.359375 158.714844 78.238281 C 158.714844 84.117188 153.9375 88.898438 148.070312 88.898438 C 145.132812 88.898438 142.472656 87.707031 140.542969 85.777344 C 138.617188 83.847656 137.425781 81.183594 137.425781 78.238281 C 137.425781 75.296875 138.617188 72.632812 140.542969 70.703125 C 142.472656 68.773438 145.132812 67.578125 148.070312 67.578125 Z M 148.070312 76.179688 C 147.503906 76.179688 146.988281 76.410156 146.617188 76.785156 C 146.246094 77.15625 146.015625 77.671875 146.015625 78.238281 C 146.015625 78.808594 146.246094 79.324219 146.617188 79.695312 C 146.988281 80.070312 147.503906 80.300781 148.070312 80.300781 C 149.210938 80.300781 150.125 79.386719 150.125 78.238281 C 150.125 77.09375 149.210938 76.179688 148.070312 76.179688 Z M 148.070312 76.179688 " fill-opacity="1" fill-rule="nonzero"/><path fill="#d31920" d="M 202.277344 74.195312 C 205.214844 74.195312 207.875 75.386719 209.800781 77.316406 C 211.730469 79.246094 212.921875 81.914062 212.921875 84.855469 C 212.921875 87.796875 211.730469 90.460938 209.800781 92.390625 C 207.875 94.320312 205.214844 95.515625 202.277344 95.515625 C 196.40625 95.515625 191.628906 90.734375 191.628906 84.855469 C 191.628906 78.980469 196.410156 74.195312 202.277344 74.195312 Z M 202.277344 82.796875 C 201.136719 82.796875 200.21875 83.707031 200.21875 84.855469 C 200.21875 86.003906 201.136719 86.914062 202.277344 86.914062 C 202.84375 86.914062 203.359375 86.683594 203.730469 86.3125 C 204.101562 85.9375 204.332031 85.421875 204.332031 84.855469 C 204.332031 83.714844 203.414062 82.796875 202.277344 82.796875 Z M 202.277344 82.796875 " fill-opacity="1" fill-rule="nonzero"/><g clip-path="url(#fe6e3673d8)"><path fill="#d31920" d="M 227.542969 49.917969 C 233.410156 49.917969 238.1875 54.703125 238.1875 60.578125 C 238.1875 66.457031 233.414062 71.238281 227.542969 71.238281 C 221.671875 71.238281 216.894531 66.453125 216.894531 60.578125 C 216.894531 54.699219 221.667969 49.917969 227.542969 49.917969 Z M 227.542969 58.519531 C 226.394531 58.519531 225.484375 59.4375 225.484375 60.578125 C 225.484375 61.71875 226.394531 62.636719 227.542969 62.636719 C 228.6875 62.636719 229.597656 61.722656 229.597656 60.578125 C 229.597656 59.4375 228.683594 58.519531 227.542969 58.519531 Z M 227.542969 58.519531 " fill-opacity="1" fill-rule="nonzero"/></g><g clip-path="url(#e8cf5c2a0a)"><path fill="#d31920" d="M 312.0625 127.191406 C 317.933594 127.191406 322.710938 131.976562 322.710938 137.851562 C 322.710938 143.730469 317.9375 148.507812 312.0625 148.507812 C 306.195312 148.507812 301.417969 143.726562 301.417969 137.851562 C 301.417969 131.972656 306.191406 127.191406 312.0625 127.191406 Z M 312.0625 135.792969 C 310.917969 135.792969 310.007812 136.707031 310.007812 137.851562 C 310.007812 138.992188 310.917969 139.910156 312.0625 139.910156 C 313.210938 139.910156 314.121094 138.992188 314.121094 137.851562 C 314.121094 136.710938 313.207031 135.792969 312.0625 135.792969 Z M 312.0625 135.792969 " fill-opacity="1" fill-rule="nonzero"/></g><path fill="#d31920" d="M 291.679688 176.511719 C 294.621094 176.511719 297.28125 177.707031 299.207031 179.636719 C 301.136719 181.566406 302.328125 184.230469 302.328125 187.171875 C 302.328125 190.117188 301.136719 192.78125 299.207031 194.710938 C 297.28125 196.640625 294.621094 197.832031 291.679688 197.832031 C 288.742188 197.832031 286.082031 196.640625 284.15625 194.710938 C 282.226562 192.78125 281.035156 190.117188 281.035156 187.171875 C 281.035156 184.230469 282.226562 181.566406 284.15625 179.636719 C 286.082031 177.707031 288.742188 176.511719 291.679688 176.511719 Z M 293.136719 185.71875 C 292.765625 185.34375 292.25 185.113281 291.679688 185.113281 C 291.113281 185.113281 290.597656 185.34375 290.226562 185.71875 C 289.855469 186.089844 289.625 186.605469 289.625 187.171875 C 289.625 187.742188 289.855469 188.257812 290.226562 188.628906 C 290.597656 189.003906 291.113281 189.230469 291.679688 189.230469 C 292.25 189.230469 292.765625 189.003906 293.136719 188.628906 C 293.507812 188.257812 293.738281 187.742188 293.738281 187.171875 C 293.738281 186.605469 293.507812 186.089844 293.136719 185.71875 Z M 293.136719 185.71875 " fill-opacity="1" fill-rule="nonzero"/><g clip-path="url(#6ba6ad285a)"><path fill="#d31920" d="M 174.9375 303.808594 C 180.808594 303.808594 185.582031 308.589844 185.582031 314.46875 C 185.582031 320.347656 180.804688 325.128906 174.9375 325.128906 C 169.066406 325.128906 164.292969 320.351562 164.292969 314.46875 C 164.292969 308.59375 169.070312 303.808594 174.9375 303.808594 Z M 174.9375 312.410156 C 173.800781 312.410156 172.882812 313.324219 172.882812 314.46875 C 172.882812 315.617188 173.796875 316.527344 174.9375 316.527344 C 176.078125 316.527344 176.992188 315.617188 176.992188 314.46875 C 176.992188 313.324219 176.078125 312.410156 174.9375 312.410156 Z M 174.9375 312.410156 " fill-opacity="1" fill-rule="nonzero"/></g><path fill="#d31920" d="M 218.125 296.589844 C 221.0625 296.589844 223.722656 297.78125 225.648438 299.710938 C 227.578125 301.640625 228.769531 304.304688 228.769531 307.25 C 228.769531 310.191406 227.578125 312.855469 225.648438 314.785156 C 223.722656 316.714844 221.0625 317.910156 218.125 317.910156 C 215.183594 317.910156 212.523438 316.714844 210.597656 314.785156 C 208.667969 312.855469 207.476562 310.191406 207.476562 307.25 C 207.476562 304.304688 208.667969 301.640625 210.597656 299.710938 C 212.523438 297.78125 215.183594 296.589844 218.125 296.589844 Z M 219.578125 305.792969 C 219.207031 305.421875 218.691406 305.191406 218.125 305.191406 C 217.554688 305.191406 217.039062 305.421875 216.667969 305.792969 C 216.296875 306.164062 216.066406 306.679688 216.066406 307.25 C 216.066406 307.816406 216.296875 308.332031 216.667969 308.703125 C 217.039062 309.078125 217.554688 309.308594 218.125 309.308594 C 218.691406 309.308594 219.207031 309.078125 219.578125 308.703125 C 219.949219 308.332031 220.179688 307.816406 220.179688 307.25 C 220.179688 306.679688 219.949219 306.164062 219.578125 305.792969 Z M 219.578125 305.792969 " fill-opacity="1" fill-rule="nonzero"/><path fill="#d31920" d="M 159.308594 241.460938 C 159.308594 239.085938 157.382812 237.160156 155.011719 237.160156 C 152.640625 237.160156 150.71875 239.085938 150.71875 241.460938 L 150.71875 279.648438 C 150.71875 282.023438 152.640625 283.949219 155.011719 283.949219 C 157.382812 283.949219 159.308594 282.023438 159.308594 279.648438 Z M 159.308594 241.460938 " fill-opacity="1" fill-rule="nonzero"/><path fill="#d31920" d="M 155.011719 275.347656 C 157.953125 275.347656 160.613281 276.542969 162.539062 278.472656 C 164.464844 280.398438 165.65625 283.066406 165.65625 286.007812 C 165.65625 288.953125 164.464844 291.617188 162.539062 293.546875 C 160.613281 295.472656 157.953125 296.667969 155.011719 296.667969 C 152.074219 296.667969 149.410156 295.472656 147.484375 293.546875 C 145.558594 291.617188 144.367188 288.953125 144.367188 286.007812 C 144.367188 280.136719 149.15625 275.347656 155.011719 275.347656 Z M 156.46875 284.550781 C 156.097656 284.179688 155.582031 283.949219 155.011719 283.949219 C 153.863281 283.949219 152.957031 284.859375 152.957031 286.007812 C 152.957031 286.578125 153.1875 287.09375 153.558594 287.464844 C 153.929688 287.835938 154.445312 288.066406 155.011719 288.066406 C 155.582031 288.066406 156.097656 287.835938 156.464844 287.464844 C 156.839844 287.09375 157.066406 286.578125 157.066406 286.007812 C 157.066406 285.4375 156.839844 284.921875 156.46875 284.550781 Z M 156.46875 284.550781 " fill-opacity="1" fill-rule="nonzero"/><path fill="#d31920" d="M 287.296875 226.636719 C 290.21875 226.636719 292.878906 227.832031 294.8125 229.769531 L 294.820312 229.761719 L 294.824219 229.761719 L 294.859375 229.796875 C 296.765625 231.722656 297.941406 234.375 297.941406 237.296875 C 297.941406 240.238281 296.746094 242.90625 294.820312 244.835938 C 294.714844 244.941406 294.605469 245.039062 294.496094 245.128906 C 292.589844 246.886719 290.0625 247.957031 287.292969 247.957031 C 284.355469 247.957031 281.695312 246.761719 279.769531 244.835938 C 277.839844 242.90625 276.648438 240.238281 276.648438 237.296875 C 276.648438 234.355469 277.839844 231.6875 279.769531 229.761719 C 281.695312 227.832031 284.355469 226.636719 287.292969 226.636719 Z M 291.785156 232.800781 L 288.75 235.824219 C 288.386719 235.460938 287.875 235.238281 287.296875 235.238281 C 286.726562 235.238281 286.210938 235.46875 285.839844 235.839844 C 285.46875 236.210938 285.238281 236.726562 285.238281 237.296875 C 285.238281 237.867188 285.46875 238.382812 285.839844 238.753906 C 286.210938 239.125 286.726562 239.355469 287.296875 239.355469 C 287.808594 239.355469 288.269531 239.179688 288.617188 238.890625 L 288.75 238.753906 C 289.121094 238.382812 289.351562 237.867188 289.351562 237.296875 C 289.351562 236.734375 289.125 236.222656 288.757812 235.851562 L 288.746094 235.839844 Z M 291.785156 232.800781 " fill-opacity="1" fill-rule="nonzero"/><path fill="#d31920" d="M 73.019531 202.371094 C 75.957031 202.371094 78.621094 203.566406 80.546875 205.496094 C 80.652344 205.601562 80.75 205.710938 80.84375 205.820312 C 82.59375 207.730469 83.664062 210.261719 83.664062 213.03125 C 83.664062 218.910156 78.890625 223.691406 73.019531 223.691406 C 67.152344 223.691406 62.375 218.90625 62.375 213.03125 C 62.375 207.152344 67.148438 202.371094 73.019531 202.371094 Z M 73.019531 210.972656 C 71.871094 210.972656 70.964844 211.890625 70.964844 213.03125 C 70.964844 214.171875 71.875 215.089844 73.019531 215.089844 C 74.167969 215.089844 75.074219 214.175781 75.074219 213.03125 C 75.074219 211.890625 74.164062 210.972656 73.019531 210.972656 Z M 73.019531 210.972656 " fill-opacity="1" fill-rule="nonzero"/><g clip-path="url(#2635805294)"><path fill="#d31920" d="M 62.613281 159.113281 C 68.476562 159.113281 73.257812 163.910156 73.257812 169.773438 C 73.257812 172.714844 72.066406 175.378906 70.140625 177.308594 C 68.214844 179.238281 65.550781 180.433594 62.613281 180.433594 C 59.675781 180.433594 57.011719 179.238281 55.085938 177.308594 C 53.160156 175.382812 51.96875 172.714844 51.96875 169.773438 C 51.96875 166.832031 53.160156 164.164062 55.085938 162.234375 C 57.011719 160.304688 59.675781 159.113281 62.613281 159.113281 Z M 62.613281 167.714844 C 62.042969 167.714844 61.53125 167.945312 61.160156 168.316406 C 60.789062 168.6875 60.558594 169.203125 60.558594 169.773438 C 60.558594 170.339844 60.789062 170.855469 61.160156 171.226562 C 61.53125 171.601562 62.042969 171.832031 62.613281 171.832031 C 63.179688 171.832031 63.695312 171.601562 64.066406 171.230469 C 64.4375 170.855469 64.667969 170.339844 64.667969 169.773438 C 64.667969 168.621094 63.761719 167.714844 62.613281 167.714844 Z M 62.613281 167.714844 " fill-opacity="1" fill-rule="nonzero"/></g><path fill="#d31920" d="M 121.585938 150.878906 C 123.957031 150.878906 125.878906 148.953125 125.878906 146.578125 C 125.878906 144.203125 123.957031 142.277344 121.585938 142.277344 L 94.4375 142.277344 C 92.066406 142.277344 90.144531 144.203125 90.144531 146.578125 C 90.144531 148.953125 92.066406 150.878906 94.4375 150.878906 Z M 121.585938 150.878906 " fill-opacity="1" fill-rule="nonzero"/><path fill="#d31920" d="M 88.089844 135.917969 C 93.957031 135.917969 98.734375 140.703125 98.734375 146.578125 C 98.734375 152.457031 93.960938 157.238281 88.089844 157.238281 C 82.21875 157.238281 77.441406 152.453125 77.441406 146.578125 C 77.441406 140.699219 82.214844 135.917969 88.089844 135.917969 Z M 88.089844 144.519531 C 86.941406 144.519531 86.03125 145.4375 86.03125 146.578125 C 86.03125 147.71875 86.941406 148.636719 88.089844 148.636719 C 89.234375 148.636719 90.144531 147.722656 90.144531 146.578125 C 90.144531 145.4375 89.234375 144.519531 88.089844 144.519531 Z M 88.089844 144.519531 " fill-opacity="1" fill-rule="nonzero"/></svg>